<?xml version="1.0" encoding="utf-8"?>
<!-- Generator: Adobe Illustrator 26.3.1, SVG Export Plug-In . SVG Version: 6.00 Build 0)  -->
<svg version="1.1" id="Layer_1" xmlns="http://www.w3.org/2000/svg" xmlns:xlink="http://www.w3.org/1999/xlink" width="73" height="68"
	 viewBox="0 0 73 68" style="enable-background:new 0 0 73 68;" xml:space="preserve">
<style type="text/css">
	.st0{fill-rule:evenodd;clip-rule:evenodd;fill:#53F2F3;}
	.st1{fill-rule:evenodd;clip-rule:evenodd;fill:#00CBDB;}
</style>
<g>
	<path class="st0" d="M36.5,0.6c-6.6,0-11.9,5.3-11.9,11.9v9.5H15C8.4,22.1,3,27.4,3,34C3,40.6,8.4,45.9,15,45.9h9.6V22.1l0,0v0
		h23.9v-9.5C48.4,5.9,43.1,0.6,36.5,0.6z"/>
	<path class="st1" d="M48.4,55.5c0,6.6-5.3,11.9-11.9,11.9c-6.6,0-11.9-5.3-11.9-11.9V22.1l0,0v0H58C64.6,22.1,70,27.4,70,34
		c0,6.6-5.3,11.9-11.9,11.9h-9.6V55.5z"/>
</g>
</svg>
